<svg width="45" height="34" viewBox="0 0 45 34" fill="none" xmlns="http://www.w3.org/2000/svg">
<path d="M0.363636 34V23.6364C0.363636 20.7576 0.924243 17.8485 2.04545 14.9091C3.19697 11.9394 4.68182 9.18182 6.5 6.63636C8.34849 4.06061 10.2576 1.93939 12.2273 0.272728L21.6818 5.45454C20.0455 8.12121 18.7424 10.9091 17.7727 13.8182C16.803 16.697 16.3333 19.9545 16.3636 23.5909V34H0.363636ZM23.1818 34V23.6364C23.1818 20.7576 23.7424 17.8485 24.8636 14.9091C26.0152 11.9394 27.5 9.18182 29.3182 6.63636C31.1667 4.06061 33.0758 1.93939 35.0455 0.272728L44.5 5.45454C42.8636 8.12121 41.5606 10.9091 40.5909 13.8182C39.6212 16.697 39.1515 19.9545 39.1818 23.5909V34H23.1818Z" fill="white"/>
</svg>
